<svg id="Layer_1" data-name="Layer 1" xmlns="http://www.w3.org/2000/svg" viewBox="0 0 386.19 626.45"><defs><style>.cls-1{fill:#dcddde;}</style></defs><title>favorite-inactive</title><path class="cls-1" d="M348.87,1936.36c-12.13,10.11-22,5.53-22-10.41V1344a28.71,28.71,0,0,1,28.71-28.71H684.38A28.66,28.66,0,0,1,713.09,1344v582c0,15.86-9.84,20.52-22,10.41l-160.2-133.5c-6-5-15.9-5-21.87,0Zm128.1-291,36.65-19.27a15.32,15.32,0,0,1,12.77,0L563,1645.33c6.89,3.62,11.55.34,10.22-7.43l-7-40.81A15.3,15.3,0,0,1,570.2,1585l29.65-28.9c5.57-5.43,3.9-10.88-3.9-12l-41-6a15.32,15.32,0,0,1-10.33-7.51l-18.32-37.13c-3.44-7-9.14-7.07-12.63,0l-18.32,37.13a15.31,15.31,0,0,1-10.33,7.51l-41,6c-7.7,1.12-9.55,6.51-3.9,12l29.65,28.9a15.31,15.31,0,0,1,3.95,12.15l-7,40.81C465.43,1645.57,470,1649,477,1645.33Z" transform="translate(-326.9 -1315.27)"/></svg>